<mxfile host="app.diagrams.net" modified="2022-08-18T03:44:46.578Z" agent="5.0 (X11; Linux x86_64) AppleWebKit/537.36 (KHTML, like Gecko) Chrome/104.0.0.0 Safari/537.36" etag="U28CHcF4kMLBgTc2teiQ" version="20.2.4" type="github">
  <diagram id="o6OXmS90365OrSwRLali" name="D_0">
    <mxGraphModel dx="2622" dy="703" grid="1" gridSize="10" guides="1" tooltips="1" connect="1" arrows="1" fold="1" page="1" pageScale="1" pageWidth="1200" pageHeight="1920" background="#333333" math="0" shadow="0">
      <root>
        <mxCell id="0" />
        <mxCell id="1" parent="0" />
        <mxCell id="nGH60VJGJcq-LF6p8v-s-4" value="" style="edgeStyle=orthogonalEdgeStyle;rounded=0;orthogonalLoop=1;jettySize=auto;html=1;fontColor=#E6E6E6;strokeColor=#E6E6E6;curved=1;startArrow=classic;startFill=1;endArrow=none;endFill=0;" edge="1" parent="1" source="nGH60VJGJcq-LF6p8v-s-6" target="nGH60VJGJcq-LF6p8v-s-14">
          <mxGeometry relative="1" as="geometry" />
        </mxCell>
        <mxCell id="nGH60VJGJcq-LF6p8v-s-5" value="" style="edgeStyle=orthogonalEdgeStyle;rounded=0;orthogonalLoop=1;jettySize=auto;html=1;fontColor=#E6E6E6;strokeColor=#E6E6E6;curved=1;startArrow=classic;startFill=1;endArrow=none;endFill=0;" edge="1" parent="1" source="nGH60VJGJcq-LF6p8v-s-6" target="nGH60VJGJcq-LF6p8v-s-18">
          <mxGeometry relative="1" as="geometry" />
        </mxCell>
        <mxCell id="nGH60VJGJcq-LF6p8v-s-29" value="" style="edgeStyle=orthogonalEdgeStyle;curved=1;rounded=0;orthogonalLoop=1;jettySize=auto;html=1;strokeColor=#E6E6E6;startArrow=classic;startFill=1;endArrow=none;endFill=0;" edge="1" parent="1" source="nGH60VJGJcq-LF6p8v-s-6" target="nGH60VJGJcq-LF6p8v-s-28">
          <mxGeometry relative="1" as="geometry" />
        </mxCell>
        <mxCell id="nGH60VJGJcq-LF6p8v-s-6" value="&lt;font color=&quot;#e6e6e6&quot;&gt;老人&lt;/font&gt;" style="shape=actor;whiteSpace=wrap;html=1;fillColor=none;strokeColor=#E6E6E6;" vertex="1" parent="1">
          <mxGeometry x="41" y="320" width="120" height="120" as="geometry" />
        </mxCell>
        <mxCell id="nGH60VJGJcq-LF6p8v-s-14" value="&lt;font color=&quot;#e6e6e6&quot;&gt;养老机构&lt;/font&gt;" style="shape=actor;whiteSpace=wrap;html=1;fillColor=none;strokeColor=#E6E6E6;" vertex="1" parent="1">
          <mxGeometry x="200" y="520" width="120" height="120" as="geometry" />
        </mxCell>
        <mxCell id="sQbUL3pwHJnTFC7uaMrv-2" value="" style="edgeStyle=orthogonalEdgeStyle;curved=1;rounded=0;orthogonalLoop=1;jettySize=auto;html=1;strokeColor=#E6E6E6;entryX=0;entryY=0.75;entryDx=0;entryDy=0;exitX=1;exitY=0.75;exitDx=0;exitDy=0;" edge="1" parent="1" source="nGH60VJGJcq-LF6p8v-s-18" target="nGH60VJGJcq-LF6p8v-s-14">
          <mxGeometry relative="1" as="geometry">
            <mxPoint x="80" y="580" as="targetPoint" />
          </mxGeometry>
        </mxCell>
        <mxCell id="nGH60VJGJcq-LF6p8v-s-18" value="&lt;font color=&quot;#e6e6e6&quot;&gt;监管部门&lt;/font&gt;" style="shape=actor;whiteSpace=wrap;html=1;fillColor=none;strokeColor=#E6E6E6;" vertex="1" parent="1">
          <mxGeometry x="-120" y="520" width="120" height="120" as="geometry" />
        </mxCell>
        <mxCell id="nGH60VJGJcq-LF6p8v-s-28" value="&lt;font color=&quot;#e6e6e6&quot;&gt;家属&lt;/font&gt;" style="shape=actor;whiteSpace=wrap;html=1;fillColor=none;strokeColor=#E6E6E6;" vertex="1" parent="1">
          <mxGeometry x="41" y="120" width="120" height="120" as="geometry" />
        </mxCell>
        <mxCell id="sQbUL3pwHJnTFC7uaMrv-3" value="&lt;font color=&quot;#e6e6e6&quot;&gt;监护&lt;/font&gt;" style="text;html=1;align=center;verticalAlign=middle;resizable=0;points=[];autosize=1;strokeColor=none;fillColor=none;" vertex="1" parent="1">
          <mxGeometry x="106" y="264" width="50" height="30" as="geometry" />
        </mxCell>
        <mxCell id="sQbUL3pwHJnTFC7uaMrv-4" value="&lt;font color=&quot;#e6e6e6&quot;&gt;监管&lt;/font&gt;" style="text;html=1;align=center;verticalAlign=middle;resizable=0;points=[];autosize=1;strokeColor=none;fillColor=none;" vertex="1" parent="1">
          <mxGeometry x="-110" y="420" width="50" height="30" as="geometry" />
        </mxCell>
        <mxCell id="sQbUL3pwHJnTFC7uaMrv-5" value="&lt;font color=&quot;#e6e6e6&quot;&gt;监管&lt;/font&gt;" style="text;html=1;align=center;verticalAlign=middle;resizable=0;points=[];autosize=1;strokeColor=none;fillColor=none;" vertex="1" parent="1">
          <mxGeometry x="250" y="420" width="50" height="30" as="geometry" />
        </mxCell>
      </root>
    </mxGraphModel>
  </diagram>
</mxfile>
